<?xml version="1.0" encoding="UTF-8" standalone="no"?>
<svg
   xmlns:dc="http://purl.org/dc/elements/1.1/"
   xmlns:cc="http://creativecommons.org/ns#"
   xmlns:rdf="http://www.w3.org/1999/02/22-rdf-syntax-ns#"
   xmlns:svg="http://www.w3.org/2000/svg"
   xmlns="http://www.w3.org/2000/svg"
   xmlns:sodipodi="http://sodipodi.sourceforge.net/DTD/sodipodi-0.dtd"
   xmlns:inkscape="http://www.inkscape.org/namespaces/inkscape"
   viewBox="0 0 570 720"
   id="svg2"
   version="1.1"
   inkscape:version="0.91 r13725"
   sodipodi:docname="RaspiBluePlayerLogo.svg"
   inkscape:export-filename="E:\prj\RaspiBluePlayer\html\img\logo.png"
   inkscape:export-xdpi="32.052631"
   inkscape:export-ydpi="32.052631">
  <title
     id="title4431">RaspiBluePlayerLogo</title>
  <metadata
     id="metadata36">
    <rdf:RDF>
      <cc:Work
         rdf:about="">
        <dc:format>image/svg+xml</dc:format>
        <dc:type
           rdf:resource="http://purl.org/dc/dcmitype/StillImage" />
        <dc:title>RaspiBluePlayerLogo</dc:title>
      </cc:Work>
    </rdf:RDF>
  </metadata>
  <defs
     id="defs34" />
  <sodipodi:namedview
     pagecolor="#ffffff"
     bordercolor="#666666"
     borderopacity="1"
     objecttolerance="10"
     gridtolerance="10"
     guidetolerance="10"
     inkscape:pageopacity="0"
     inkscape:pageshadow="2"
     inkscape:window-width="1920"
     inkscape:window-height="1057"
     id="namedview32"
     showgrid="false"
     inkscape:zoom="0.92696389"
     inkscape:cx="182.60965"
     inkscape:cy="407.86905"
     inkscape:window-x="-8"
     inkscape:window-y="-8"
     inkscape:window-maximized="1"
     inkscape:current-layer="svg2" />
  <path
     fill="#000"
     d="m158.38,1.6562c-3.6193,0.11232-7.5172,1.4493-11.938,4.9375-10.83-4.1763-21.33-5.6271-30.72,2.8751-14.5-1.8808-19.212,2.0002-22.782,6.5312-3.183-0.066-23.819-3.272-33.282,10.844-23.781-2.814-31.297,13.988-22.781,29.656-4.8569,7.519-9.8895,14.947,1.4688,29.281-4.018,7.9835-1.5274,16.644,7.9375,27.125-2.4979,11.223,2.4121,19.141,11.219,25.312-1.6471,15.358,14.084,24.287,18.781,27.469,1.8037,8.9487,5.5629,17.393,23.531,22.062,2.9632,13.336,13.762,15.639,24.219,18.438-34.562,20.09-64.201,46.523-64,111.38l-5.0625,9.0312c-39.63,24.1-75.285,101.56-19.53,164.52,3.6419,19.708,9.7496,33.864,15.188,49.531,8.1338,63.131,61.218,92.692,75.219,96.188,20.517,15.628,42.368,30.457,71.938,40.844,27.875,28.749,58.074,39.706,88.438,39.688,0.44515-0.00028,0.89853,0.005,1.3438,0,30.364,0.0189,60.562-10.938,88.438-39.688,29.569-10.387,51.421-25.216,71.938-40.844,14.001-3.4959,67.085-33.057,75.219-96.188,5.4379-15.667,11.546-29.823,15.188-49.531,55.754-62.965,20.1-140.43-19.531-164.53l-5.07-9.03c0.20067-64.852-29.438-91.285-64-111.38,10.457-2.7984,21.256-5.1014,24.219-18.438,17.968-4.6698,21.728-13.114,23.531-22.062,4.6978-3.1813,20.428-12.111,18.781-27.469,8.8067-6.1716,13.717-14.09,11.219-25.312,9.4649-10.481,11.956-19.141,7.9375-27.125,11.36-14.328,6.32-21.756,1.47-29.275,8.51-15.668,1-32.47-22.79-29.656-9.46-14.116-30.09-10.91-33.28-10.844-3.57-4.531-8.28-8.412-22.78-6.5312-9.39-8.5022-19.89-7.0514-30.72-2.875-12.86-10.148-21.37-2.0133-31.09,1.0624-15.57-5.0877-19.13,1.881-26.78,4.7188-16.98-3.5881-22.14,4.224-30.28,12.469l-9.4688-0.1875c-25.611,15.093-38.334,45.826-42.844,61.625-4.5121-15.802-17.206-46.535-42.812-61.625l-9.4688,0.1875c-8.15-8.245-13.31-16.057-30.29-12.469-7.65-2.8378-11.2-9.8065-26.78-4.7188-6.3797-2.0185-12.247-6.2144-19.156-6z"
     id="path4" />
  <path
     fill="#bc1142"
     d="M72.91,342.09c36.41-9.76,12.292,150.63-17.333,137.47-32.587-26.21-43.083-102.97,17.333-137.47z"
     id="path16"
     style="fill:#0060a9;fill-opacity:1" />
  <path
     fill="#bc1142"
     d="m493.68,340.09c-36.414-9.7569-12.292,150.64,17.333,137.48,32.587-26.213,43.083-102.98-17.333-137.48z"
     id="path18"
     style="fill:#0060a9;fill-opacity:1" />
  <path
     fill="#bc1142"
     d="m369.97,220.65c62.835-10.61,115.12,26.722,113.01,94.858-2.0669,26.121-136.16-90.969-113.01-94.858z"
     id="path20"
     style="fill:#0060a9;fill-opacity:1" />
  <path
     fill="#bc1142"
     d="M196.36,218.65c-62.84-10.61-115.12,26.73-113.01,94.86,2.067,26.12,136.16-90.97,113.01-94.86z"
     id="path22"
     style="fill:#0060a9;fill-opacity:1" />
  <path
     fill="#bc1142"
     d="m286.62,202.76c-37.503-0.97548-73.495,27.834-73.582,44.544-0.10462,20.304,29.651,41.093,73.837,41.62,45.123,0.32321,73.916-16.64,74.061-37.594,0.16484-23.74-41.039-48.937-74.317-48.571z"
     id="path24"
     style="fill:#0060a9;fill-opacity:1" />
  <path
     fill="#bc1142"
     d="m288.91,619.12c32.697-1.4271,76.571,10.532,76.657,26.396,0.5427,15.405-39.79,50.211-78.826,49.538-40.427,1.7439-80.069-33.116-79.55-45.199-0.60506-17.716,49.226-31.548,81.719-30.735z"
     id="path26"
     style="fill:#0060a9;fill-opacity:1" />
  <path
     fill="#bc1142"
     d="m168.14,525.1c23.279,28.046,33.891,77.319,14.464,91.844-18.379,11.088-63.012,6.5216-94.736-39.052-21.395-38.242-18.638-77.157-3.6159-88.589,22.464-13.684,57.173,4.799,83.889,35.797z"
     id="path28"
     style="fill:#0060a9;fill-opacity:1" />
  <path
     fill="#bc1142"
     d="m405.02,516.21c-25.187,29.502-39.212,83.31-20.838,100.64,17.568,13.464,64.729,11.582,99.566-36.756,25.296-32.465,16.82-86.682,2.3708-101.08-21.464-16.602-52.277,4.6449-81.099,37.188z"
     id="path30"
     style="fill:#0060a9;fill-opacity:1" />
  <path
     style="fill:#75a928;fill-opacity:1"
     d="m 107.43778,130.86219 142.92643,0 -59.63985,60.08028 21.67845,21.85746 75.02809,-75.4135 75.04189,75.42724 21.69227,-21.85738 -59.65367,-60.0941 142.94026,0 L 359.04553,21.588982 287.4309,93.740466 215.84382,21.602795 107.43778,130.86219 Z m 74.03711,-30.72143 34.61671,-34.891994 34.58917,34.864424 -69.20588,0.0282 z m 142.7062,-0.0282 34.60291,-34.864427 34.60298,34.891977 -69.20589,-0.0282 z M 468.1811,19.207163 c 0.0732,0.09091 0.14658,0.183933 0.21987,0.275546 l 0,-0.275546 -0.21987,0 z"
     id="rect4273"
     inkscape:connector-curvature="0" />
  <g
     id="g4385"
     transform="translate(-322.01763,370.94116)"
     style="fill:#bc1142;fill-opacity:1">
    <g
       id="g4342"
       style="fill:#bc1142;fill-opacity:1">
      <g
         id="g4345"
         transform="translate(-70.121395,-179.07925)"
         style="fill:#bc1142;fill-opacity:1" />
      <path
         sodipodi:type="star"
         style="fill:#bc1142;fill-opacity:1"
         id="path4427"
         sodipodi:sides="3"
         sodipodi:cx="1.1489449"
         sodipodi:cy="-143.9485"
         sodipodi:r1="156.8231"
         sodipodi:r2="78.411552"
         sodipodi:arg1="1.0486639"
         sodipodi:arg2="2.0958615"
         inkscape:flatsided="false"
         inkscape:rounded="0"
         inkscape:randomized="0"
         d="M 79.361264,-8.0208762 -38.156367,-76.099669 -155.67399,-144.17846 l 117.716779,-67.73386 117.716773,-67.73385 -0.199149,135.81265 z"
         inkscape:transform-center-x="-47.808722"
         inkscape:transform-center-y="62.077833"
         transform="matrix(0.95201335,0.5916429,-0.54964517,1.0247556,528.57228,180.48023)" />
    </g>
    <g
       id="g4349"
       style="fill:#bc1142;fill-opacity:1" />
    <g
       id="g4351"
       style="fill:#bc1142;fill-opacity:1" />
    <g
       id="g4353"
       style="fill:#bc1142;fill-opacity:1" />
    <g
       id="g4355"
       style="fill:#bc1142;fill-opacity:1" />
    <g
       id="g4357"
       style="fill:#bc1142;fill-opacity:1" />
    <g
       id="g4359"
       style="fill:#bc1142;fill-opacity:1" />
    <g
       id="g4361"
       style="fill:#bc1142;fill-opacity:1" />
    <g
       id="g4363"
       style="fill:#bc1142;fill-opacity:1" />
    <g
       id="g4365"
       style="fill:#bc1142;fill-opacity:1" />
    <g
       id="g4367"
       style="fill:#bc1142;fill-opacity:1" />
    <g
       id="g4369"
       style="fill:#bc1142;fill-opacity:1" />
    <g
       id="g4371"
       style="fill:#bc1142;fill-opacity:1" />
    <g
       id="g4373"
       style="fill:#bc1142;fill-opacity:1" />
    <g
       id="g4375"
       style="fill:#bc1142;fill-opacity:1" />
    <g
       id="g4377"
       style="fill:#bc1142;fill-opacity:1" />
  </g>
</svg>
